<?xml version="1.0" standalone="no"?>
<!DOCTYPE svg PUBLIC "-//W3C//DTD SVG 1.0//EN" "http://www.w3.org/TR/2001/REC-SVG-20010904/DTD/svg10.dtd">
<svg xmlns="http://www.w3.org/2000/svg" xmlns:xlink="http://www.w3.org/1999/xlink" id="body_1" width="880" height="880">

<g transform="matrix(55 0 0 55 0 0)">
    <path d="M16 6.28C 16.00069 5.837817 15.763975 5.429293 15.38 5.21L15.38 5.21L8.64 1.21C 8.244527 0.9792675 7.7554727 0.9792675 7.3600006 1.21L7.3600006 1.21L0.6100006 5.21C 0.23051739 5.435172 -0.002131939 5.8437405 -0.002131939 6.285C -0.002131939 6.726259 0.23051739 7.1348276 0.6100006 7.36L0.6100006 7.36L2.5300007 8.4800005L2.5300007 11.290001C 2.5323498 11.736618 2.767323 12.149716 3.1500006 12.380001L3.1500006 12.380001L7.4000006 14.830001C 7.7857456 15.043572 8.254255 15.043572 8.64 14.830001L8.64 14.830001L12.89 12.380001C 13.272678 12.149716 13.507651 11.736618 13.51 11.290001L13.51 11.290001L13.51 8.45L14.75 7.72L14.75 10.44L16 10.44L16 6.28zM12.27 11.280001L8 13.74L3.7800002 11.29L3.7800002 9.22L7.36 11.35C 7.7565784 11.576608 8.243422 11.576608 8.64 11.35L8.64 11.35L12.26 9.190001zM8 10.27L1.25 6.2700005L8 2.26L14.75 6.26z" stroke="none" fill="#00ADB5" fill-rule="nonzero" />
</g>
</svg>